# xmcd
#
# Track frame offsets:
#	182
#	13552
#	27475
#	41825
#	57822
#	72067
#	84837
#	96060
#	108982
#	122487
#	137190
#	149560
#	164397
#	174690
#	188842
#	204747
#
# Disc length: 2907 seconds
#
# Revision: 2
# Processed by: cddbd v1.4PL0 Copyright (c) Steve Scherf et al.
# Submitted via: audiograbber 1.81.03
#
DISCID=de0b5910
DTITLE=Various Artist - Essencial Jazz
DYEAR=1900
DGENRE=Jazz
TTITLE0=Louis Armstrong - Ain't Misbehavin'
TTITLE1=Charlie Parker - I can't get started
TTITLE2=Billie Holiday - God bless the child
TTITLE3=Fats Waller - Last night a miracle happened
TTITLE4=Erroll Garner - Stormy Weather
TTITLE5=Jelly Roll Morton - High Society
TTITLE6=Django Reinhardt - I Got Rhythm
TTITLE7=Miles Davis - Yardbird Suite
TTITLE8=Louis Armstrong - C'est si bon
TTITLE9=Fats Waller - Honey Hush
TTITLE10=Erroll Garner - Stardust
TTITLE11=Billie Holiday - Lover Man
TTITLE12=Jelly Roll Morton - Balli' The Jack
TTITLE13=Django Reinhardt - Sweet Georgia Brown
TTITLE14=Charlie Parker - I Get A Kick Out Of You
TTITLE15=Miles Davis - Ornithology
EXTD=
EXTT0=Louis Armstrong
EXTT1=Charlie Parker
EXTT2=Billie Holiday
EXTT3=Fats Waller
EXTT4=Errol Garner
EXTT5=Jelly Roll Morton
EXTT6=Django Reinhardt
EXTT7=Miles Davis
EXTT8=Louis Armstrong
EXTT9=Fats Waller
EXTT10=Errol Garner
EXTT11=Billie Holiday
EXTT12=Jelly Roll Morton
EXTT13=Django Reinhardt
EXTT14=Charlie Parker
EXTT15=Miles Davis
PLAYORDER=
